<svg xmlns="http://www.w3.org/2000/svg" viewBox="0 0 1000 1000"><path d="M860.3 374.7l124.4-124.4c4-3.9 5.8-9.4 5.2-14.8c-0.8-5.6-4-10.4-8.7-13.2l-335.5-193.8c-6.9-4-15.7-2.8-21.3 2.9l-124.4 124.4l-124.4-124.3c-5.7-5.7-14.4-6.9-21.4-2.9l-335.4 193.8c-4.9 2.8-8 7.6-8.7 13.2c-0.7 5.3 1 10.9 4.9 14.8l124.4 124.4l-124.3 124.5c-3.9 3.9-5.7 9.4-4.9 14.8c.6 5.4 3.8 10.3 8.7 13l128 74v161.2c0 6.4 3.4 12.2 8.8 15.4l335.5 193.9c2.7 1.7 5.8 2.3 8.8 2.3c3 0 6.1-0.7 8.8-2.3l335.4-193.9c5.4-3.2 8.8-9 8.8-15.4v-161.2l128.1-74c4.7-2.8 7.9-7.6 8.7-13c.7-5.5-1.2-10.9-5.2-14.8l-124.3-124.6Zm-60.4-2.2l-299.9 173.3l-300-173.3l224.9-130l75.1-43.3l271.3 156.6l28.6 16.7Zm-160.1-308.7l303.6 175.6l-111 111l-18.2-10.5l-285.5-165l111.1-111.1Zm-279.6 0l111.1 111.1l-303.8 175.4l-111.1-111l303.8-175.5Zm-192.7 330.8l303.6 175.6l-111 111l-186.8-108c-0.1 0-0.1 0-0.1 0l-116.8-67.5l111.1-111.1Zm14.7 224.7l172 99.3c2.8 1.7 5.8 2.4 8.8 2.4c.4 0 .6-0.4 1-0.4c4.1-0.1 8.3-1.5 11.5-4.7l106.8-106.8v314.2l-300.1-173.5v-130.5Zm635.4 130.5l-300 173.4v-314.1l106.6 106.8c3.1 3.1 7.2 4.4 11.4 4.7c.4 0 .7 .4 1 .4c3.1 0 6.1-0.7 8.8-2.4l172-99.3v130.5h.2Zm-177.9-68.7l-111-111l303.7-175.6l111 111.1l-303.7 175.5Z" fill="#111"/></svg>
