<svg xmlns="http://www.w3.org/2000/svg" height="960" viewBox="0 0 960 960" width="960"><path fill="#fff" d="M120 180v172h60v-172h172v-60h-172c-16 0-30 6-42 18c-12 12-18 26-18 42Zm660 0v172h60v-172c0-16-6-30-18-42c-12-12-26-18-42-18h-172v60Zm-215.4 407.3h-106.7l44.6-52.7c12.3-14.6 22.6-27.2 30.7-37.9c8.1-10.7 14.2-19.9 18.4-27.7c8.3-15 12.5-30.3 12.5-45.9c0-24.5-9-45-26.8-61.6c-17.7-16.5-39.5-24.8-65.7-24.8c-54 0-84.5 30.1-91.4 90.5h43c4.2-34.3 20.8-51.4 49.7-51.4c13.9 0 25.5 4.5 34.9 13.6c9.4 9 14.1 20.2 14.1 33.5c0 9.3-3.5 19.8-10.5 31.4c-3.5 5.9-8.5 13.3-15.2 22.1c-6.6 8.8-14.8 19.2-24.5 31.2l-99.5 120.4h192.4Zm-426.6 234.7c12 12 26 18 42 18h172v-60h-172v-172h-60v172c0 16 6 30 18 42Zm470-42v60h172c16 0 30-6 42-18c12-12 18-26 18-42v-172h-60v172Z" fill-rule="evenodd"/></svg>